<svg width="26" height="26" viewBox="0 0 26 26" fill="none" xmlns="http://www.w3.org/2000/svg">
<path d="M17.8263 8.07629C18.0552 7.85836 18.3599 7.73788 18.6759 7.74027C18.992 7.74266 19.2947 7.86774 19.5203 8.08911C19.7459 8.31048 19.8767 8.61082 19.885 8.92677C19.8934 9.24272 19.7786 9.54956 19.5651 9.78254L13.0813 17.8913C12.9698 18.0114 12.8353 18.1077 12.6857 18.1746C12.5361 18.2415 12.3746 18.2776 12.2107 18.2806C12.0469 18.2836 11.8841 18.2536 11.7322 18.1923C11.5802 18.131 11.4422 18.0397 11.3263 17.9238L7.02657 13.624C6.90683 13.5125 6.81079 13.3779 6.74418 13.2284C6.67757 13.0789 6.64175 12.9175 6.63886 12.7539C6.63597 12.5902 6.66608 12.4277 6.72737 12.2759C6.78867 12.1242 6.87991 11.9863 6.99564 11.8706C7.11137 11.7549 7.24922 11.6636 7.40098 11.6023C7.55273 11.541 7.71528 11.5109 7.87892 11.5138C8.04256 11.5167 8.20395 11.5525 8.35345 11.6191C8.50295 11.6858 8.6375 11.7818 8.74907 11.9015L12.1518 15.3027L17.7954 8.11204C17.8056 8.09953 17.8165 8.08759 17.8279 8.07629H17.8263Z" fill="white"/>
</svg>
