<svg width="24" height="24" viewBox="0 0 24 24" fill="none" xmlns="http://www.w3.org/2000/svg">
<path d="M24 12C24 18.6274 18.6274 24 12 24C5.37258 24 0 18.6274 0 12C0 5.37258 5.37258 0 12 0C18.6274 0 24 5.37258 24 12Z" fill="#3448FF"/>
<path fill-rule="evenodd" clip-rule="evenodd" d="M18.2761 8.39052C18.7968 8.91122 18.7968 9.75544 18.2761 10.2761L11.6095 16.9428C11.0888 17.4635 10.2446 17.4635 9.72386 16.9428L5.72386 12.9428C5.20316 12.4221 5.20316 11.5779 5.72386 11.0572C6.24456 10.5365 7.08878 10.5365 7.60948 11.0572L10.6667 14.1144L16.3905 8.39052C16.9112 7.86983 17.7554 7.86983 18.2761 8.39052Z" fill="#F3F5F7"/>
</svg>
