<svg width="32" height="32" viewBox="0 0 32 32" fill="none" xmlns="http://www.w3.org/2000/svg">
<path d="M21.3332 10.6666H10.6665V21.3333H21.3332V10.6666Z" fill="#7C5CFC"/>
<path opacity="0.4" d="M6.6665 29.3334C8.8665 29.3334 10.6665 27.5334 10.6665 25.3334V21.3334H6.6665C4.4665 21.3334 2.6665 23.1334 2.6665 25.3334C2.6665 27.5334 4.4665 29.3334 6.6665 29.3334Z" fill="#7C5CFC"/>
<path opacity="0.4" d="M6.6665 10.6666H10.6665V6.66663C10.6665 4.46663 8.8665 2.66663 6.6665 2.66663C4.4665 2.66663 2.6665 4.46663 2.6665 6.66663C2.6665 8.86663 4.4665 10.6666 6.6665 10.6666Z" fill="#7C5CFC"/>
<path opacity="0.4" d="M21.3335 10.6666H25.3335C27.5335 10.6666 29.3335 8.86663 29.3335 6.66663C29.3335 4.46663 27.5335 2.66663 25.3335 2.66663C23.1335 2.66663 21.3335 4.46663 21.3335 6.66663V10.6666Z" fill="#7C5CFC"/>
<path opacity="0.4" d="M25.3335 29.3334C27.5335 29.3334 29.3335 27.5334 29.3335 25.3334C29.3335 23.1334 27.5335 21.3334 25.3335 21.3334H21.3335V25.3334C21.3335 27.5334 23.1335 29.3334 25.3335 29.3334Z" fill="#7C5CFC"/>
</svg>
