<svg width="38" height="54" viewBox="0 0 38 54" fill="none" xmlns="http://www.w3.org/2000/svg">
<g clip-path="url(#clip0_164_10102)">
<path d="M25.6349 40.9437C25.357 41.2217 25.0271 41.4423 24.6639 41.5927C24.3008 41.7432 23.9116 41.8206 23.5185 41.8206C23.1255 41.8206 22.7363 41.7432 22.3731 41.5927C22.01 41.4423 21.6801 41.2217 21.4022 40.9437L4.18602 23.7303C1.70296 21.1965 0.320145 17.7853 0.338063 14.2377C0.35598 10.6902 1.77318 7.29304 4.28171 4.78451C6.79023 2.27599 10.1874 0.858788 13.7349 0.84087C17.2825 0.822953 20.6937 2.20577 23.2275 4.68883L34.1083 15.5697C34.6681 16.1324 34.9815 16.8945 34.9795 17.6882C34.9774 18.482 34.6601 19.2425 34.0974 19.8023C33.5347 20.3621 32.7726 20.6755 31.9788 20.6735C31.1851 20.6714 30.4246 20.3541 29.8648 19.7914L18.9975 8.91059C17.5936 7.50666 15.6895 6.71794 13.704 6.71794C11.7186 6.71794 9.81443 7.50666 8.4105 8.91059C7.00657 10.3145 6.21785 12.2187 6.21785 14.2041C6.21785 16.1896 7.00657 18.0937 8.4105 19.4976L25.6267 36.7138C26.1884 37.2738 26.5048 38.0339 26.5063 38.8271C26.5078 39.6203 26.1944 40.3816 25.6349 40.9437Z" fill="#7C5CFC"/>
<path d="M34.0021 49.3111C31.4748 51.832 28.051 53.2477 24.4814 53.2477C20.9118 53.2477 17.4879 51.832 14.9606 49.3111L4.09342 38.4303C3.79186 38.1583 3.54883 37.8277 3.37914 37.4587C3.20946 37.0897 3.11667 36.69 3.10642 36.284C3.09618 35.878 3.16869 35.4741 3.31955 35.0971C3.47041 34.72 3.69646 34.3776 3.98392 34.0907C4.27138 33.8038 4.61424 33.5784 4.99161 33.4282C5.36898 33.2781 5.77296 33.2064 6.17895 33.2174C6.58494 33.2284 6.98444 33.322 7.3531 33.4924C7.72177 33.6628 8.05188 33.9065 8.32334 34.2085L19.1906 45.0894C20.5966 46.4767 22.4944 47.2516 24.4696 47.245C26.4449 47.2384 28.3374 46.4508 29.7341 45.054C31.1309 43.6573 31.9185 41.7648 31.9251 39.7895C31.9317 37.8143 31.1568 35.9166 29.7695 34.5105L12.5533 17.2861C11.992 16.7248 11.6767 15.9636 11.6767 15.1698C11.6767 14.376 11.992 13.6148 12.5533 13.0535C13.1145 12.4922 13.8758 12.1769 14.6696 12.1769C15.4634 12.1769 16.2246 12.4922 16.7859 13.0535L34.0021 30.2697C36.5237 32.7966 37.9398 36.2206 37.9398 39.7904C37.9398 43.3602 36.5237 46.7842 34.0021 49.3111Z" fill="#7C5CFC"/>
</g>
<defs>
<clipPath id="clip0_164_10102">
<rect width="37.6885" height="52.5" fill="white" transform="translate(0.25 0.75)"/>
</clipPath>
</defs>
</svg>
