<svg width="62" height="80" viewBox="0 0 62 80" fill="none" xmlns="http://www.w3.org/2000/svg">
<path d="M17.2132 62.6175H31.002C48.1226 62.6175 62.002 48.6 62.002 31.3088C62.002 14.0177 48.1226 0.00012207 31.002 0.00012207C13.8813 0.00012207 0.00195312 14.0177 0.00195312 31.3088V80.0001L17.2132 62.6175ZM44.7908 31.3088C44.7909 33.1377 44.4344 34.9488 43.7415 36.6385C43.0486 38.3282 42.033 39.8636 40.7525 41.1569C39.4721 42.4502 37.952 43.4761 36.279 44.176C34.606 44.8759 32.8128 45.2362 31.002 45.2362H17.2132V31.3088C17.2132 27.6154 18.6659 24.0732 21.2518 21.4616C23.8377 18.8499 27.3449 17.3827 31.002 17.3827C34.659 17.3827 38.1662 18.8499 40.7521 21.4616C43.338 24.0732 44.7908 27.6154 44.7908 31.3088V31.3088Z" fill="white"/>
</svg>
